<svg xmlns="http://www.w3.org/2000/svg" xmlns:xlink="http://www.w3.org/1999/xlink" width="500" zoomAndPan="magnify" viewBox="0 0 375 374.999991" height="500" preserveAspectRatio="xMidYMid meet" version="1.0"><defs><clipPath id="fdd55282a0"><path d="M 199 99 L 345 99 L 345 160 L 199 160 Z M 199 99 " clip-rule="nonzero"/></clipPath><clipPath id="9671c3d262"><path d="M 340.960938 175.953125 L 192.460938 154.8125 L 201.441406 91.699219 L 349.945312 112.839844 Z M 340.960938 175.953125 " clip-rule="nonzero"/></clipPath><clipPath id="3d3c1e8a39"><path d="M 340.960938 175.953125 L 192.460938 154.8125 L 201.441406 91.699219 L 349.945312 112.839844 Z M 340.960938 175.953125 " clip-rule="nonzero"/></clipPath><clipPath id="a23fba43d8"><path d="M 340.960938 175.953125 L 192.460938 154.8125 L 201.441406 91.699219 L 349.945312 112.839844 Z M 340.960938 175.953125 " clip-rule="nonzero"/></clipPath><clipPath id="8c84287d34"><path d="M 207 125 L 344 125 L 344 160 L 207 160 Z M 207 125 " clip-rule="nonzero"/></clipPath><clipPath id="a0317f059b"><path d="M 340.960938 175.953125 L 192.460938 154.8125 L 201.441406 91.699219 L 349.945312 112.839844 Z M 340.960938 175.953125 " clip-rule="nonzero"/></clipPath><clipPath id="c171a64eb8"><path d="M 340.960938 175.953125 L 192.460938 154.8125 L 201.441406 91.699219 L 349.945312 112.839844 Z M 340.960938 175.953125 " clip-rule="nonzero"/></clipPath><clipPath id="39c2677b4c"><path d="M 340.960938 175.953125 L 192.460938 154.8125 L 201.441406 91.699219 L 349.945312 112.839844 Z M 340.960938 175.953125 " clip-rule="nonzero"/></clipPath><clipPath id="349807292b"><path d="M 199 99 L 345 99 L 345 143 L 199 143 Z M 199 99 " clip-rule="nonzero"/></clipPath><clipPath id="007c07e204"><path d="M 340.960938 175.953125 L 192.460938 154.8125 L 201.441406 91.699219 L 349.945312 112.839844 Z M 340.960938 175.953125 " clip-rule="nonzero"/></clipPath><clipPath id="dddf6cbc5b"><path d="M 340.960938 175.953125 L 192.460938 154.8125 L 201.441406 91.699219 L 349.945312 112.839844 Z M 340.960938 175.953125 " clip-rule="nonzero"/></clipPath><clipPath id="098ce5e54c"><path d="M 340.960938 175.953125 L 192.460938 154.8125 L 201.441406 91.699219 L 349.945312 112.839844 Z M 340.960938 175.953125 " clip-rule="nonzero"/></clipPath><clipPath id="c4e3d8d630"><path d="M 207 125 L 208 125 L 208 127 L 207 127 Z M 207 125 " clip-rule="nonzero"/></clipPath><clipPath id="beb75cf4fe"><path d="M 340.960938 175.953125 L 192.460938 154.8125 L 201.441406 91.699219 L 349.945312 112.839844 Z M 340.960938 175.953125 " clip-rule="nonzero"/></clipPath><clipPath id="a356653695"><path d="M 340.960938 175.953125 L 192.460938 154.8125 L 201.441406 91.699219 L 349.945312 112.839844 Z M 340.960938 175.953125 " clip-rule="nonzero"/></clipPath><clipPath id="097debc240"><path d="M 340.960938 175.953125 L 192.460938 154.8125 L 201.441406 91.699219 L 349.945312 112.839844 Z M 340.960938 175.953125 " clip-rule="nonzero"/></clipPath><clipPath id="c208594133"><path d="M 217 104 L 244 104 L 244 122 L 217 122 Z M 217 104 " clip-rule="nonzero"/></clipPath><clipPath id="35df190fe8"><path d="M 340.960938 175.953125 L 192.460938 154.8125 L 201.441406 91.699219 L 349.945312 112.839844 Z M 340.960938 175.953125 " clip-rule="nonzero"/></clipPath><clipPath id="0639894ef7"><path d="M 340.960938 175.953125 L 192.460938 154.8125 L 201.441406 91.699219 L 349.945312 112.839844 Z M 340.960938 175.953125 " clip-rule="nonzero"/></clipPath><clipPath id="c62a61cb55"><path d="M 340.960938 175.953125 L 192.460938 154.8125 L 201.441406 91.699219 L 349.945312 112.839844 Z M 340.960938 175.953125 " clip-rule="nonzero"/></clipPath><clipPath id="f84b6a2492"><path d="M 298 128 L 321 128 L 321 135 L 298 135 Z M 298 128 " clip-rule="nonzero"/></clipPath><clipPath id="75b7623943"><path d="M 340.960938 175.953125 L 192.460938 154.8125 L 201.441406 91.699219 L 349.945312 112.839844 Z M 340.960938 175.953125 " clip-rule="nonzero"/></clipPath><clipPath id="74d79fae14"><path d="M 340.960938 175.953125 L 192.460938 154.8125 L 201.441406 91.699219 L 349.945312 112.839844 Z M 340.960938 175.953125 " clip-rule="nonzero"/></clipPath><clipPath id="16daa760d3"><path d="M 340.960938 175.953125 L 192.460938 154.8125 L 201.441406 91.699219 L 349.945312 112.839844 Z M 340.960938 175.953125 " clip-rule="nonzero"/></clipPath><clipPath id="5b4122e0d0"><path d="M 248 117 L 271 117 L 271 126 L 248 126 Z M 248 117 " clip-rule="nonzero"/></clipPath><clipPath id="cbfd929313"><path d="M 340.960938 175.953125 L 192.460938 154.8125 L 201.441406 91.699219 L 349.945312 112.839844 Z M 340.960938 175.953125 " clip-rule="nonzero"/></clipPath><clipPath id="0bce30da66"><path d="M 340.960938 175.953125 L 192.460938 154.8125 L 201.441406 91.699219 L 349.945312 112.839844 Z M 340.960938 175.953125 " clip-rule="nonzero"/></clipPath><clipPath id="438520ad1e"><path d="M 340.960938 175.953125 L 192.460938 154.8125 L 201.441406 91.699219 L 349.945312 112.839844 Z M 340.960938 175.953125 " clip-rule="nonzero"/></clipPath><clipPath id="96ac19b671"><path d="M 235 133 L 258 133 L 258 143 L 235 143 Z M 235 133 " clip-rule="nonzero"/></clipPath><clipPath id="0c07df4734"><path d="M 340.960938 175.953125 L 192.460938 154.8125 L 201.441406 91.699219 L 349.945312 112.839844 Z M 340.960938 175.953125 " clip-rule="nonzero"/></clipPath><clipPath id="53528e3edf"><path d="M 340.960938 175.953125 L 192.460938 154.8125 L 201.441406 91.699219 L 349.945312 112.839844 Z M 340.960938 175.953125 " clip-rule="nonzero"/></clipPath><clipPath id="2a22321891"><path d="M 340.960938 175.953125 L 192.460938 154.8125 L 201.441406 91.699219 L 349.945312 112.839844 Z M 340.960938 175.953125 " clip-rule="nonzero"/></clipPath><clipPath id="2ddb059278"><path d="M 128 125 L 276.808594 125 L 276.808594 183 L 128 183 Z M 128 125 " clip-rule="nonzero"/></clipPath><clipPath id="a624f0ffda"><path d="M 128 157 L 276.808594 157 L 276.808594 183 L 128 183 Z M 128 157 " clip-rule="nonzero"/></clipPath><clipPath id="056beadbd7"><path d="M 94 93 L 242.964844 93 L 242.964844 151 L 94 151 Z M 94 93 " clip-rule="nonzero"/></clipPath><clipPath id="7ed146cdfc"><path d="M 94 125 L 242.964844 125 L 242.964844 151 L 94 151 Z M 94 125 " clip-rule="nonzero"/></clipPath><clipPath id="50e1acc7ca"><path d="M 13 110 L 161.445312 110 L 161.445312 169 L 13 169 Z M 13 110 " clip-rule="nonzero"/></clipPath><clipPath id="b470461e85"><path d="M 13 142 L 161.445312 142 L 161.445312 169 L 13 169 Z M 13 142 " clip-rule="nonzero"/></clipPath><clipPath id="b0fa3620f3"><path d="M 32 80 L 182 80 L 182 140 L 32 140 Z M 32 80 " clip-rule="nonzero"/></clipPath><clipPath id="fc0d00d372"><path d="M 185.070312 135.433594 L 35.308594 143.851562 L 31.730469 80.203125 L 181.492188 71.785156 Z M 185.070312 135.433594 " clip-rule="nonzero"/></clipPath><clipPath id="f3cbe0a470"><path d="M 185.070312 135.433594 L 35.308594 143.851562 L 31.730469 80.203125 L 181.492188 71.785156 Z M 185.070312 135.433594 " clip-rule="nonzero"/></clipPath><clipPath id="5c3a4aad62"><path d="M 185.070312 135.433594 L 35.308594 143.851562 L 31.730469 80.203125 L 181.492188 71.785156 Z M 185.070312 135.433594 " clip-rule="nonzero"/></clipPath><clipPath id="ecadd3cd81"><path d="M 44 101 L 182 101 L 182 140 L 44 140 Z M 44 101 " clip-rule="nonzero"/></clipPath><clipPath id="a3e3919720"><path d="M 185.070312 135.433594 L 35.308594 143.851562 L 31.730469 80.203125 L 181.492188 71.785156 Z M 185.070312 135.433594 " clip-rule="nonzero"/></clipPath><clipPath id="c84b66d87a"><path d="M 185.070312 135.433594 L 35.308594 143.851562 L 31.730469 80.203125 L 181.492188 71.785156 Z M 185.070312 135.433594 " clip-rule="nonzero"/></clipPath><clipPath id="5686cc3fad"><path d="M 185.070312 135.433594 L 35.308594 143.851562 L 31.730469 80.203125 L 181.492188 71.785156 Z M 185.070312 135.433594 " clip-rule="nonzero"/></clipPath><clipPath id="0118dde0d2"><path d="M 32 80 L 182 80 L 182 102 L 32 102 Z M 32 80 " clip-rule="nonzero"/></clipPath><clipPath id="47f0b5a163"><path d="M 185.070312 135.433594 L 35.308594 143.851562 L 31.730469 80.203125 L 181.492188 71.785156 Z M 185.070312 135.433594 " clip-rule="nonzero"/></clipPath><clipPath id="c5b21ca697"><path d="M 185.070312 135.433594 L 35.308594 143.851562 L 31.730469 80.203125 L 181.492188 71.785156 Z M 185.070312 135.433594 " clip-rule="nonzero"/></clipPath><clipPath id="eb6d2f8124"><path d="M 185.070312 135.433594 L 35.308594 143.851562 L 31.730469 80.203125 L 181.492188 71.785156 Z M 185.070312 135.433594 " clip-rule="nonzero"/></clipPath><clipPath id="28b4705c3b"><path d="M 44 112 L 45 112 L 45 113 L 44 113 Z M 44 112 " clip-rule="nonzero"/></clipPath><clipPath id="9fd9a3c3dc"><path d="M 185.070312 135.433594 L 35.308594 143.851562 L 31.730469 80.203125 L 181.492188 71.785156 Z M 185.070312 135.433594 " clip-rule="nonzero"/></clipPath><clipPath id="e96cd2ab06"><path d="M 185.070312 135.433594 L 35.308594 143.851562 L 31.730469 80.203125 L 181.492188 71.785156 Z M 185.070312 135.433594 " clip-rule="nonzero"/></clipPath><clipPath id="fc0acb8830"><path d="M 185.070312 135.433594 L 35.308594 143.851562 L 31.730469 80.203125 L 181.492188 71.785156 Z M 185.070312 135.433594 " clip-rule="nonzero"/></clipPath><clipPath id="944cff50b3"><path d="M 50 88 L 80 88 L 80 102 L 50 102 Z M 50 88 " clip-rule="nonzero"/></clipPath><clipPath id="c8d9f9c5b2"><path d="M 185.070312 135.433594 L 35.308594 143.851562 L 31.730469 80.203125 L 181.492188 71.785156 Z M 185.070312 135.433594 " clip-rule="nonzero"/></clipPath><clipPath id="081ec6c667"><path d="M 185.070312 135.433594 L 35.308594 143.851562 L 31.730469 80.203125 L 181.492188 71.785156 Z M 185.070312 135.433594 " clip-rule="nonzero"/></clipPath><clipPath id="94f1ba5cc4"><path d="M 185.070312 135.433594 L 35.308594 143.851562 L 31.730469 80.203125 L 181.492188 71.785156 Z M 185.070312 135.433594 " clip-rule="nonzero"/></clipPath><clipPath id="cf7da14749"><path d="M 135 94 L 156 94 L 156 104 L 135 104 Z M 135 94 " clip-rule="nonzero"/></clipPath><clipPath id="ce0bb32fc8"><path d="M 185.070312 135.433594 L 35.308594 143.851562 L 31.730469 80.203125 L 181.492188 71.785156 Z M 185.070312 135.433594 " clip-rule="nonzero"/></clipPath><clipPath id="b37028c42c"><path d="M 185.070312 135.433594 L 35.308594 143.851562 L 31.730469 80.203125 L 181.492188 71.785156 Z M 185.070312 135.433594 " clip-rule="nonzero"/></clipPath><clipPath id="fd9b08d4a7"><path d="M 185.070312 135.433594 L 35.308594 143.851562 L 31.730469 80.203125 L 181.492188 71.785156 Z M 185.070312 135.433594 " clip-rule="nonzero"/></clipPath><clipPath id="7d813a43f3"><path d="M 84 93 L 107 93 L 107 102 L 84 102 Z M 84 93 " clip-rule="nonzero"/></clipPath><clipPath id="ed0f07c585"><path d="M 185.070312 135.433594 L 35.308594 143.851562 L 31.730469 80.203125 L 181.492188 71.785156 Z M 185.070312 135.433594 " clip-rule="nonzero"/></clipPath><clipPath id="cf9bf2a166"><path d="M 185.070312 135.433594 L 35.308594 143.851562 L 31.730469 80.203125 L 181.492188 71.785156 Z M 185.070312 135.433594 " clip-rule="nonzero"/></clipPath><clipPath id="c96c8affd2"><path d="M 185.070312 135.433594 L 35.308594 143.851562 L 31.730469 80.203125 L 181.492188 71.785156 Z M 185.070312 135.433594 " clip-rule="nonzero"/></clipPath><clipPath id="400b6c44ed"><path d="M 74 112 L 97 112 L 97 121 L 74 121 Z M 74 112 " clip-rule="nonzero"/></clipPath><clipPath id="ec60687ba6"><path d="M 185.070312 135.433594 L 35.308594 143.851562 L 31.730469 80.203125 L 181.492188 71.785156 Z M 185.070312 135.433594 " clip-rule="nonzero"/></clipPath><clipPath id="d021a9c962"><path d="M 185.070312 135.433594 L 35.308594 143.851562 L 31.730469 80.203125 L 181.492188 71.785156 Z M 185.070312 135.433594 " clip-rule="nonzero"/></clipPath><clipPath id="36c08960b7"><path d="M 185.070312 135.433594 L 35.308594 143.851562 L 31.730469 80.203125 L 181.492188 71.785156 Z M 185.070312 135.433594 " clip-rule="nonzero"/></clipPath><clipPath id="ca73cfa87a"><path d="M 215 125 L 363.554688 125 L 363.554688 183 L 215 183 Z M 215 125 " clip-rule="nonzero"/></clipPath><clipPath id="d4e6aac4a8"><path d="M 215 157 L 363.554688 157 L 363.554688 183 L 215 183 Z M 215 157 " clip-rule="nonzero"/></clipPath></defs><rect x="-37.5" width="450" fill="#ffffff" y="-37.499999" height="449.999989" fill-opacity="1"/><rect x="-37.5" width="450" fill="#ffffff" y="-37.499999" height="449.999989" fill-opacity="1"/><rect x="-37.5" width="450" fill="#ffffff" y="-37.499999" height="449.999989" fill-opacity="1"/><g clip-path="url(#fdd55282a0)"><g clip-path="url(#9671c3d262)"><g clip-path="url(#3d3c1e8a39)"><g clip-path="url(#a23fba43d8)"><path fill="#e3f2ff" d="M 209.644531 121.648438 C 203.949219 129.613281 212.574219 139.796875 226.578125 142.15625 C 226.128906 146.398438 227.871094 151.226562 231.625 154.941406 C 238.011719 161.269531 247.570312 161.765625 251.941406 155.71875 C 261.1875 161.875 273.578125 159.039062 280.292969 148.664062 C 280.332031 148.632812 280.371094 148.597656 280.410156 148.5625 C 288.007812 152.925781 298.226562 151.074219 302.117188 144.636719 C 316.238281 155.101562 342.28125 152.398438 343.953125 140.671875 C 345.421875 130.335938 326.265625 120.792969 309.40625 123.953125 C 304.914062 110.917969 291.265625 106.378906 285.320312 115.660156 C 280.171875 107.496094 271.097656 104.292969 262.765625 106.90625 C 256.886719 103 249.191406 102.460938 242.382812 106.34375 C 228.773438 95.660156 200.808594 97.371094 199.160156 108.929688 C 198.492188 113.628906 202.753906 118.421875 209.644531 121.648438 " fill-opacity="1" fill-rule="nonzero"/></g></g></g></g><g clip-path="url(#8c84287d34)"><g clip-path="url(#a0317f059b)"><g clip-path="url(#c171a64eb8)"><g clip-path="url(#39c2677b4c)"><path fill="#ffffff" d="M 207.972656 125.71875 C 210.445312 130.40625 217.566406 134.53125 226.472656 135.996094 C 226.105469 139.683594 227.988281 143.925781 231.902344 147.246094 C 238.558594 152.890625 248.328125 153.550781 252.683594 148.371094 C 262.289062 153.945312 274.878906 151.71875 281.492188 142.839844 C 281.535156 142.8125 281.574219 142.785156 281.613281 142.753906 C 289.339844 146.648438 299.800781 145.4375 303.707031 139.808594 C 315.386719 147.308594 336.078125 148.085938 343.769531 141.5625 C 340.855469 152.648438 315.738281 154.730469 302.121094 144.636719 C 298.207031 151.109375 287.964844 152.90625 280.40625 148.5625 C 280.371094 148.597656 280.328125 148.632812 280.292969 148.664062 C 273.546875 159.089844 261.140625 161.84375 251.941406 155.71875 C 247.597656 161.746094 238.03125 161.292969 231.625 154.941406 C 227.871094 151.226562 226.128906 146.398438 226.578125 142.15625 C 215.207031 140.242188 206.9375 133.003906 207.972656 125.71875 " fill-opacity="1" fill-rule="nonzero"/></g></g></g></g><g clip-path="url(#349807292b)"><g clip-path="url(#007c07e204)"><g clip-path="url(#dddf6cbc5b)"><g clip-path="url(#098ce5e54c)"><path fill="#b6d5f0" d="M 199.160156 108.929688 C 200.792969 97.480469 228.640625 95.5625 242.382812 106.34375 C 249.195312 102.460938 256.890625 102.996094 262.765625 106.90625 C 271.097656 104.289062 280.171875 107.5 285.324219 115.660156 C 291.203125 106.460938 304.832031 110.769531 309.40625 123.957031 C 327.097656 120.636719 347.175781 131.308594 343.632812 142.035156 C 342.609375 136.320312 323.460938 130.664062 308.359375 131.316406 C 303.078125 123.746094 289.253906 120.367188 283.96875 125.171875 C 278.203125 120.164062 268.941406 117.957031 261.0625 118.867188 C 254.941406 116.296875 247.292969 115.542969 240.828125 117.273438 C 236.609375 115.238281 229.574219 109.964844 222.503906 108.960938 C 212.128906 107.484375 203.496094 110.222656 199.914062 113.328125 C 199.226562 111.890625 198.949219 110.40625 199.160156 108.929688 " fill-opacity="1" fill-rule="nonzero"/></g></g></g></g><g clip-path="url(#c4e3d8d630)"><g clip-path="url(#beb75cf4fe)"><g clip-path="url(#a356653695)"><g clip-path="url(#097debc240)"><path fill="#b6d5f0" d="M 207.957031 125.855469 C 207.949219 125.925781 207.9375 125.992188 207.929688 126.058594 C 207.933594 125.996094 207.949219 125.886719 207.957031 125.855469 " fill-opacity="1" fill-rule="nonzero"/></g></g></g></g><g clip-path="url(#c208594133)"><g clip-path="url(#35df190fe8)"><g clip-path="url(#0639894ef7)"><g clip-path="url(#c62a61cb55)"><path fill="#b6d5f0" d="M 217.605469 104.214844 C 227.429688 104.390625 239.925781 112.824219 243.71875 121.8125 C 237.136719 114.242188 227.109375 107.484375 217.605469 104.214844 " fill-opacity="1" fill-rule="nonzero"/></g></g></g></g><g clip-path="url(#f84b6a2492)"><g clip-path="url(#75b7623943)"><g clip-path="url(#74d79fae14)"><g clip-path="url(#16daa760d3)"><path fill="#b6d5f0" d="M 298.390625 134.648438 C 303.277344 128.546875 313.65625 127.070312 320.0625 131.53125 C 313.011719 129.921875 304.6875 131.117188 298.390625 134.648438 " fill-opacity="1" fill-rule="nonzero"/></g></g></g></g><g clip-path="url(#5b4122e0d0)"><g clip-path="url(#cbfd929313)"><g clip-path="url(#0bce30da66)"><g clip-path="url(#438520ad1e)"><path fill="#b6d5f0" d="M 248.882812 122.453125 C 255.917969 114.214844 266.433594 115.746094 270.863281 125.582031 C 264.71875 120.214844 256.28125 119.011719 248.882812 122.453125 " fill-opacity="1" fill-rule="nonzero"/></g></g></g></g><g clip-path="url(#96ac19b671)"><g clip-path="url(#0c07df4734)"><g clip-path="url(#53528e3edf)"><g clip-path="url(#2a22321891)"><path fill="#b6d5f0" d="M 235.292969 139.15625 C 242.328125 130.914062 252.847656 132.445312 257.269531 142.28125 C 251.128906 136.917969 242.691406 135.714844 235.292969 139.15625 " fill-opacity="1" fill-rule="nonzero"/></g></g></g></g><g clip-path="url(#2ddb059278)"><path fill="#e3f2ff" d="M 264.46875 158.664062 C 268.984375 149.976562 259.007812 141.109375 244.8125 140.75 C 244.660156 136.484375 242.257812 131.953125 238.015625 128.800781 C 230.800781 123.4375 221.265625 124.292969 217.792969 130.894531 C 207.769531 126.105469 195.902344 130.65625 190.71875 141.875 C 190.683594 141.914062 190.652344 141.953125 190.617188 141.992188 C 182.476562 138.742188 172.625 142.015625 169.675781 148.9375 C 154.222656 140.566406 128.820312 146.914062 128.820312 158.757812 C 128.820312 169.199219 149.132812 175.945312 165.378906 170.441406 C 171.660156 182.710938 185.816406 185.285156 190.390625 175.257812 C 196.640625 182.613281 206.074219 184.507812 213.953125 180.746094 C 220.324219 183.785156 228.019531 183.234375 234.210938 178.429688 C 249.195312 187.089844 276.640625 181.457031 276.640625 169.78125 C 276.640625 165.03125 271.742188 160.886719 264.46875 158.664062 " fill-opacity="1" fill-rule="nonzero"/></g><path fill="#ffffff" d="M 265.546875 154.398438 C 262.441406 150.109375 254.8125 147.023438 245.785156 146.832031 C 245.632812 143.128906 243.167969 139.195312 238.824219 136.457031 C 231.441406 131.808594 221.675781 132.53125 218.09375 138.273438 C 207.796875 134.109375 195.648438 138.085938 190.351562 147.808594 C 190.3125 147.84375 190.28125 147.878906 190.246094 147.914062 C 182.046875 145.144531 171.859375 147.816406 168.785156 153.941406 C 156.167969 148.160156 135.570312 150.308594 128.875 157.851562 C 130.199219 146.464844 154.773438 140.867188 169.675781 148.9375 C 172.636719 141.980469 182.527344 138.757812 190.621094 141.992188 C 190.652344 141.953125 190.6875 141.910156 190.71875 141.875 C 195.929688 130.601562 207.820312 126.125 217.792969 130.894531 C 221.242188 124.316406 230.777344 123.417969 238.015625 128.800781 C 242.257812 131.953125 244.660156 136.484375 244.8125 140.75 C 256.34375 141.042969 265.546875 147.039062 265.546875 154.398438 " fill-opacity="1" fill-rule="nonzero"/><g clip-path="url(#a624f0ffda)"><path fill="#b6d5f0" d="M 276.640625 169.78125 C 276.640625 181.347656 249.339844 187.167969 234.214844 178.429688 C 228.015625 183.234375 220.324219 183.789062 213.953125 180.746094 C 206.074219 184.511719 196.636719 182.613281 190.390625 175.257812 C 185.867188 185.195312 171.765625 182.847656 165.378906 170.4375 C 148.332031 176.21875 126.949219 168.484375 128.945312 157.363281 C 130.761719 162.878906 150.515625 165.777344 165.378906 163.007812 C 171.671875 169.753906 185.835938 171.152344 190.390625 165.652344 C 196.800781 169.796875 206.28125 170.675781 213.953125 168.664062 C 220.378906 170.347656 228.054688 170.015625 234.214844 167.394531 C 238.675781 168.808594 246.382812 173.039062 253.527344 173.039062 C 264.007812 173.039062 272.164062 169.109375 275.273438 165.53125 C 276.15625 166.859375 276.640625 168.289062 276.640625 169.78125 " fill-opacity="1" fill-rule="nonzero"/></g><path fill="#b6d5f0" d="M 265.546875 154.261719 C 265.546875 154.191406 265.546875 154.125 265.542969 154.058594 C 265.550781 154.117188 265.550781 154.230469 265.546875 154.261719 " fill-opacity="1" fill-rule="nonzero"/><path fill="#b6d5f0" d="M 259.042969 177.046875 C 249.292969 178.257812 235.734375 171.667969 230.710938 163.304688 C 238.292969 169.871094 249.171875 175.148438 259.042969 177.046875 " fill-opacity="1" fill-rule="nonzero"/><path fill="#b6d5f0" d="M 174.777344 158.304688 C 170.800781 165.03125 160.730469 167.953125 153.757812 164.441406 C 160.96875 165.042969 169.039062 162.6875 174.777344 158.304688 " fill-opacity="1" fill-rule="nonzero"/><path fill="#b6d5f0" d="M 225.507812 163.398438 C 219.707031 172.546875 209.078125 172.511719 203.308594 163.398438 C 210.144531 167.847656 218.671875 167.847656 225.507812 163.398438 " fill-opacity="1" fill-rule="nonzero"/><path fill="#b6d5f0" d="M 236.609375 144.949219 C 230.804688 154.097656 220.175781 154.0625 214.410156 144.949219 C 221.246094 149.394531 229.769531 149.398438 236.609375 144.949219 " fill-opacity="1" fill-rule="nonzero"/><g clip-path="url(#056beadbd7)"><path fill="#e3f2ff" d="M 230.625 126.617188 C 235.140625 117.933594 225.167969 109.066406 210.96875 108.703125 C 210.816406 104.4375 208.414062 99.90625 204.171875 96.753906 C 196.957031 91.390625 187.425781 92.246094 183.949219 98.847656 C 173.925781 94.058594 162.058594 98.613281 156.875 109.828125 C 156.84375 109.867188 156.808594 109.90625 156.773438 109.945312 C 148.632812 106.699219 138.78125 109.96875 135.835938 116.894531 C 120.378906 108.523438 94.976562 114.867188 94.976562 126.714844 C 94.976562 137.152344 115.289062 143.898438 131.535156 138.394531 C 137.816406 150.667969 151.972656 153.242188 156.546875 143.210938 C 162.796875 150.570312 172.230469 152.460938 180.109375 148.699219 C 186.480469 151.742188 194.175781 151.1875 200.371094 146.386719 C 215.351562 155.042969 242.796875 149.410156 242.796875 137.734375 C 242.796875 132.988281 237.898438 128.839844 230.625 126.617188 " fill-opacity="1" fill-rule="nonzero"/></g><path fill="#ffffff" d="M 231.703125 122.355469 C 228.597656 118.0625 220.96875 114.980469 211.945312 114.785156 C 211.789062 111.085938 209.324219 107.148438 204.980469 104.414062 C 197.597656 99.761719 187.832031 100.488281 184.25 106.230469 C 173.957031 102.0625 161.804688 106.042969 156.507812 115.765625 C 156.46875 115.796875 156.4375 115.832031 156.402344 115.867188 C 148.203125 113.097656 138.015625 115.773438 134.941406 121.898438 C 122.324219 116.117188 101.726562 118.265625 95.03125 125.804688 C 96.355469 114.421875 120.929688 108.820312 135.832031 116.894531 C 138.796875 109.933594 148.683594 106.710938 156.777344 109.949219 C 156.808594 109.90625 156.84375 109.867188 156.875 109.828125 C 162.085938 98.558594 173.976562 94.082031 183.949219 98.847656 C 187.398438 92.269531 196.933594 91.371094 204.171875 96.753906 C 208.414062 99.90625 210.816406 104.441406 210.96875 108.703125 C 222.5 108.996094 231.703125 114.996094 231.703125 122.355469 " fill-opacity="1" fill-rule="nonzero"/><g clip-path="url(#7ed146cdfc)"><path fill="#b6d5f0" d="M 242.796875 137.734375 C 242.796875 149.300781 215.496094 155.125 200.371094 146.386719 C 194.171875 151.1875 186.480469 151.742188 180.109375 148.699219 C 172.230469 152.464844 162.796875 150.566406 156.546875 143.210938 C 152.023438 153.148438 137.921875 150.804688 131.535156 138.394531 C 114.488281 144.171875 93.105469 136.4375 95.101562 125.316406 C 96.917969 130.832031 116.671875 133.734375 131.535156 130.960938 C 137.828125 137.707031 151.992188 139.105469 156.546875 133.605469 C 162.957031 137.75 172.4375 138.628906 180.109375 136.621094 C 186.535156 138.300781 194.210938 137.96875 200.371094 135.347656 C 204.832031 136.765625 212.539062 140.992188 219.683594 140.992188 C 230.164062 140.992188 238.320312 137.0625 241.429688 133.484375 C 242.3125 134.8125 242.796875 136.242188 242.796875 137.734375 " fill-opacity="1" fill-rule="nonzero"/></g><path fill="#b6d5f0" d="M 231.703125 122.214844 C 231.703125 122.144531 231.703125 122.078125 231.699219 122.011719 C 231.707031 122.074219 231.707031 122.183594 231.703125 122.214844 " fill-opacity="1" fill-rule="nonzero"/><path fill="#b6d5f0" d="M 225.203125 145 C 215.449219 146.210938 201.890625 139.621094 196.867188 131.261719 C 204.449219 137.828125 215.328125 143.105469 225.203125 145 " fill-opacity="1" fill-rule="nonzero"/><path fill="#b6d5f0" d="M 140.933594 126.257812 C 136.957031 132.984375 126.886719 135.910156 119.914062 132.394531 C 127.125 132.996094 135.195312 130.640625 140.933594 126.257812 " fill-opacity="1" fill-rule="nonzero"/><path fill="#b6d5f0" d="M 191.664062 131.355469 C 185.863281 140.5 175.234375 140.46875 169.464844 131.355469 C 176.300781 135.800781 184.828125 135.800781 191.664062 131.355469 " fill-opacity="1" fill-rule="nonzero"/><path fill="#b6d5f0" d="M 202.765625 112.902344 C 196.964844 122.050781 186.332031 122.015625 180.566406 112.902344 C 187.402344 117.351562 195.929688 117.351562 202.765625 112.902344 " fill-opacity="1" fill-rule="nonzero"/><g clip-path="url(#50e1acc7ca)"><path fill="#e3f2ff" d="M 149.105469 144.199219 C 153.617188 135.511719 143.644531 126.644531 129.449219 126.285156 C 129.296875 122.019531 126.890625 117.488281 122.652344 114.335938 C 115.4375 108.972656 105.902344 109.828125 102.425781 116.429688 C 92.40625 111.640625 80.539062 116.191406 75.355469 127.410156 C 75.320312 127.449219 75.289062 127.488281 75.253906 127.527344 C 67.113281 124.277344 57.257812 127.550781 54.3125 134.472656 C 38.859375 126.105469 13.457031 132.449219 13.457031 144.292969 C 13.457031 154.734375 33.769531 161.480469 50.015625 155.976562 C 56.296875 168.246094 70.449219 170.820312 75.027344 160.792969 C 81.277344 168.148438 90.710938 170.042969 98.589844 166.28125 C 104.960938 169.320312 112.65625 168.769531 118.847656 163.964844 C 133.832031 172.625 161.277344 166.992188 161.277344 155.316406 C 161.277344 150.566406 156.378906 146.421875 149.105469 144.199219 " fill-opacity="1" fill-rule="nonzero"/></g><path fill="#ffffff" d="M 150.183594 139.933594 C 147.078125 135.644531 139.449219 132.5625 130.421875 132.367188 C 130.265625 128.664062 127.804688 124.730469 123.460938 121.996094 C 116.078125 117.34375 106.3125 118.066406 102.730469 123.808594 C 92.433594 119.644531 80.285156 123.621094 74.984375 133.34375 C 74.949219 133.378906 74.914062 133.414062 74.878906 133.449219 C 66.683594 130.679688 56.496094 133.355469 53.421875 139.476562 C 40.800781 133.695312 20.207031 135.84375 13.511719 143.386719 C 14.832031 132 39.40625 126.402344 54.3125 134.472656 C 57.273438 127.515625 67.164062 124.292969 75.253906 127.527344 C 75.289062 127.488281 75.324219 127.445312 75.355469 127.410156 C 80.5625 116.140625 92.457031 111.660156 102.425781 116.429688 C 105.878906 109.851562 115.414062 108.953125 122.652344 114.335938 C 126.890625 117.488281 129.296875 122.019531 129.449219 126.285156 C 140.976562 126.578125 150.183594 132.574219 150.183594 139.933594 " fill-opacity="1" fill-rule="nonzero"/><g clip-path="url(#b470461e85)"><path fill="#b6d5f0" d="M 161.277344 155.316406 C 161.277344 166.882812 133.972656 172.703125 118.851562 163.964844 C 112.652344 168.769531 104.957031 169.324219 98.589844 166.28125 C 90.710938 170.046875 81.273438 168.148438 75.023438 160.792969 C 70.5 170.730469 56.402344 168.382812 50.015625 155.972656 C 32.96875 161.753906 11.585938 154.019531 13.578125 142.898438 C 15.398438 148.414062 35.152344 151.3125 50.015625 148.542969 C 56.308594 155.289062 70.472656 156.6875 75.023438 151.1875 C 81.4375 155.332031 90.917969 156.210938 98.589844 154.199219 C 105.011719 155.882812 112.691406 155.550781 118.851562 152.929688 C 123.308594 154.34375 131.019531 158.574219 138.164062 158.574219 C 148.640625 158.574219 156.800781 154.644531 159.910156 151.066406 C 160.792969 152.394531 161.277344 153.824219 161.277344 155.316406 " fill-opacity="1" fill-rule="nonzero"/></g><path fill="#b6d5f0" d="M 150.179688 139.796875 C 150.179688 139.726562 150.179688 139.660156 150.179688 139.59375 C 150.1875 139.652344 150.1875 139.765625 150.179688 139.796875 " fill-opacity="1" fill-rule="nonzero"/><path fill="#b6d5f0" d="M 143.679688 162.582031 C 133.929688 163.792969 120.367188 157.203125 115.347656 148.839844 C 122.929688 155.40625 133.808594 160.6875 143.679688 162.582031 " fill-opacity="1" fill-rule="nonzero"/><path fill="#b6d5f0" d="M 59.414062 143.839844 C 55.433594 150.566406 45.367188 153.488281 38.394531 149.976562 C 45.605469 150.578125 53.675781 148.222656 59.414062 143.839844 " fill-opacity="1" fill-rule="nonzero"/><path fill="#b6d5f0" d="M 110.144531 148.933594 C 104.339844 158.082031 93.714844 158.046875 87.945312 148.933594 C 94.78125 153.382812 103.304688 153.382812 110.144531 148.933594 " fill-opacity="1" fill-rule="nonzero"/><path fill="#b6d5f0" d="M 121.246094 130.484375 C 115.441406 139.632812 104.8125 139.597656 99.046875 130.484375 C 105.882812 134.929688 114.40625 134.933594 121.246094 130.484375 " fill-opacity="1" fill-rule="nonzero"/><g clip-path="url(#b0fa3620f3)"><g clip-path="url(#fc0d00d372)"><g clip-path="url(#f3cbe0a470)"><g clip-path="url(#5c3a4aad62)"><path fill="#e3f2ff" d="M 45.648438 107.960938 C 41.628906 116.886719 52.085938 125.179688 66.28125 124.742188 C 66.671875 128.992188 69.324219 133.382812 73.734375 136.289062 C 81.242188 141.242188 90.710938 139.851562 93.8125 133.066406 C 104.085938 137.285156 115.679688 132.074219 120.222656 120.585938 C 120.257812 120.542969 120.289062 120.5 120.320312 120.460938 C 128.628906 123.246094 138.285156 119.425781 140.835938 112.351562 C 156.734375 119.839844 181.742188 112.082031 181.078125 100.253906 C 180.492188 89.828125 159.832031 84.230469 143.921875 90.640625 C 136.960938 78.742188 122.683594 76.964844 118.679688 87.234375 C 112.027344 80.242188 102.503906 78.878906 94.84375 83.078125 C 88.3125 80.398438 80.664062 81.382812 74.75 86.527344 C 59.304688 78.722656 32.21875 85.886719 32.875 97.542969 C 33.140625 102.285156 38.261719 106.148438 45.648438 107.960938 " fill-opacity="1" fill-rule="nonzero"/></g></g></g></g><g clip-path="url(#ecadd3cd81)"><g clip-path="url(#a3e3919720)"><g clip-path="url(#c84b66d87a)"><g clip-path="url(#5686cc3fad)"><path fill="#ffffff" d="M 44.808594 112.277344 C 48.152344 116.386719 55.945312 119.039062 64.964844 118.722656 C 65.328125 122.410156 68.007812 126.203125 72.5 128.691406 C 80.132812 132.917969 89.84375 131.648438 93.09375 125.714844 C 103.609375 129.296875 115.515625 124.640625 120.261719 114.636719 C 120.296875 114.601562 120.328125 114.566406 120.359375 114.527344 C 128.699219 116.832031 138.71875 113.589844 141.449219 107.304688 C 154.371094 112.367188 174.8125 109.066406 181.074219 101.160156 C 180.394531 112.605469 156.171875 119.574219 140.839844 112.351562 C 138.269531 119.464844 128.578125 123.234375 120.316406 120.457031 C 120.289062 120.5 120.253906 120.542969 120.222656 120.585938 C 115.65625 132.128906 104.03125 137.265625 93.8125 133.066406 C 90.734375 139.828125 81.265625 141.257812 73.734375 136.289062 C 69.324219 133.382812 66.671875 128.992188 66.28125 124.742188 C 54.75 125.097656 45.222656 119.625 44.808594 112.277344 " fill-opacity="1" fill-rule="nonzero"/></g></g></g></g><g clip-path="url(#0118dde0d2)"><g clip-path="url(#47f0b5a163)"><g clip-path="url(#c5b21ca697)"><g clip-path="url(#eb6d2f8124)"><path fill="#b6d5f0" d="M 32.875 97.542969 C 32.222656 85.996094 59.15625 78.648438 74.746094 86.527344 C 80.667969 81.382812 88.316406 80.398438 94.84375 83.078125 C 102.503906 78.875 112.027344 80.242188 118.679688 87.234375 C 122.640625 77.058594 136.847656 78.609375 143.921875 90.640625 C 160.617188 83.914062 182.398438 90.4375 181.035156 101.652344 C 178.910156 96.246094 159.023438 94.460938 144.339844 98.0625 C 137.679688 91.679688 123.457031 91.078125 119.21875 96.824219 C 112.585938 93.046875 103.070312 92.703125 95.523438 95.140625 C 89.015625 93.820312 81.367188 94.582031 75.367188 97.546875 C 70.832031 96.382812 62.898438 92.589844 55.765625 92.992188 C 45.304688 93.582031 37.378906 97.960938 34.476562 101.710938 C 33.519531 100.433594 32.957031 99.03125 32.875 97.542969 " fill-opacity="1" fill-rule="nonzero"/></g></g></g></g><g clip-path="url(#28b4705c3b)"><g clip-path="url(#9fd9a3c3dc)"><g clip-path="url(#e96cd2ab06)"><g clip-path="url(#fc0acb8830)"><path fill="#b6d5f0" d="M 44.820312 112.414062 C 44.824219 112.484375 44.828125 112.554688 44.835938 112.617188 C 44.824219 112.558594 44.820312 112.445312 44.820312 112.414062 " fill-opacity="1" fill-rule="nonzero"/></g></g></g></g><g clip-path="url(#944cff50b3)"><g clip-path="url(#c8d9f9c5b2)"><g clip-path="url(#081ec6c667)"><g clip-path="url(#94f1ba5cc4)"><path fill="#b6d5f0" d="M 50.03125 89.300781 C 59.699219 87.546875 73.609375 93.363281 79.09375 101.429688 C 71.15625 95.300781 59.996094 90.640625 50.03125 89.300781 " fill-opacity="1" fill-rule="nonzero"/></g></g></g></g><g clip-path="url(#cf7da14749)"><g clip-path="url(#ce0bb32fc8)"><g clip-path="url(#b37028c42c)"><g clip-path="url(#fd9b08d4a7)"><path fill="#b6d5f0" d="M 135.21875 103.285156 C 138.8125 96.347656 148.703125 92.863281 155.859375 95.980469 C 148.628906 95.785156 140.703125 98.589844 135.21875 103.285156 " fill-opacity="1" fill-rule="nonzero"/></g></g></g></g><g clip-path="url(#7d813a43f3)"><g clip-path="url(#ed0f07c585)"><g clip-path="url(#cf9bf2a166)"><g clip-path="url(#c96c8affd2)"><path fill="#b6d5f0" d="M 84.28125 101.046875 C 89.5625 91.585938 100.175781 91.023438 106.445312 99.800781 C 99.371094 95.742188 90.859375 96.222656 84.28125 101.046875 " fill-opacity="1" fill-rule="nonzero"/></g></g></g></g><g clip-path="url(#400b6c44ed)"><g clip-path="url(#ec60687ba6)"><g clip-path="url(#d021a9c962)"><g clip-path="url(#36c08960b7)"><path fill="#b6d5f0" d="M 74.234375 120.089844 C 79.515625 110.628906 90.128906 110.066406 96.398438 118.84375 C 89.324219 114.789062 80.8125 115.265625 74.234375 120.089844 " fill-opacity="1" fill-rule="nonzero"/></g></g></g></g><g clip-path="url(#ca73cfa87a)"><path fill="#e3f2ff" d="M 351.214844 158.664062 C 355.730469 149.976562 345.757812 141.109375 331.558594 140.75 C 331.40625 136.484375 329.003906 131.953125 324.761719 128.800781 C 317.546875 123.4375 308.015625 124.292969 304.539062 130.894531 C 294.515625 126.105469 282.652344 130.65625 277.464844 141.875 C 277.433594 141.914062 277.398438 141.953125 277.363281 141.992188 C 269.226562 138.742188 259.371094 142.015625 256.425781 148.9375 C 240.96875 140.566406 215.566406 146.914062 215.566406 158.757812 C 215.566406 169.199219 235.878906 175.945312 252.125 170.441406 C 258.410156 182.710938 272.5625 185.285156 277.136719 175.257812 C 283.386719 182.613281 292.820312 184.507812 300.703125 180.746094 C 307.074219 183.785156 314.765625 183.234375 320.960938 178.429688 C 335.941406 187.089844 363.386719 181.457031 363.386719 169.78125 C 363.386719 165.03125 358.492188 160.886719 351.214844 158.664062 " fill-opacity="1" fill-rule="nonzero"/></g><path fill="#ffffff" d="M 352.296875 154.398438 C 349.191406 150.109375 341.558594 147.023438 332.535156 146.832031 C 332.378906 143.128906 329.914062 139.195312 325.570312 136.457031 C 318.1875 131.808594 308.421875 132.53125 304.839844 138.273438 C 294.546875 134.109375 282.394531 138.085938 277.097656 147.808594 C 277.058594 147.84375 277.027344 147.878906 276.992188 147.914062 C 268.792969 145.144531 258.605469 147.816406 255.53125 153.941406 C 242.914062 148.160156 222.320312 150.308594 215.621094 157.851562 C 216.945312 146.464844 241.519531 140.867188 256.421875 148.9375 C 259.386719 141.980469 269.273438 138.757812 277.367188 141.992188 C 277.398438 141.953125 277.433594 141.910156 277.464844 141.875 C 282.675781 130.601562 294.570312 126.125 304.539062 130.894531 C 307.988281 124.316406 317.523438 123.417969 324.761719 128.800781 C 329.003906 131.953125 331.40625 136.484375 331.558594 140.75 C 343.089844 141.042969 352.296875 147.039062 352.296875 154.398438 " fill-opacity="1" fill-rule="nonzero"/><g clip-path="url(#d4e6aac4a8)"><path fill="#b6d5f0" d="M 363.386719 169.78125 C 363.386719 181.347656 336.085938 187.167969 320.960938 178.429688 C 314.761719 183.234375 307.070312 183.789062 300.703125 180.746094 C 292.820312 184.511719 283.386719 182.613281 277.136719 175.257812 C 272.613281 185.195312 258.511719 182.847656 252.125 170.4375 C 235.078125 176.21875 213.695312 168.484375 215.691406 157.363281 C 217.507812 162.878906 237.261719 165.777344 252.125 163.007812 C 258.417969 169.753906 272.582031 171.152344 277.136719 165.652344 C 283.550781 169.796875 293.027344 170.675781 300.703125 168.664062 C 307.125 170.347656 314.800781 170.015625 320.960938 167.394531 C 325.421875 168.808594 333.128906 173.039062 340.273438 173.039062 C 350.753906 173.039062 358.910156 169.109375 362.019531 165.53125 C 362.902344 166.859375 363.386719 168.289062 363.386719 169.78125 " fill-opacity="1" fill-rule="nonzero"/></g><path fill="#b6d5f0" d="M 352.292969 154.261719 C 352.292969 154.191406 352.292969 154.125 352.289062 154.058594 C 352.296875 154.117188 352.296875 154.230469 352.292969 154.261719 " fill-opacity="1" fill-rule="nonzero"/><path fill="#b6d5f0" d="M 345.792969 177.046875 C 336.039062 178.257812 322.480469 171.667969 317.457031 163.304688 C 325.039062 169.871094 335.917969 175.148438 345.792969 177.046875 " fill-opacity="1" fill-rule="nonzero"/><path fill="#b6d5f0" d="M 261.523438 158.304688 C 257.546875 165.03125 247.476562 167.953125 240.507812 164.441406 C 247.714844 165.042969 255.789062 162.6875 261.523438 158.304688 " fill-opacity="1" fill-rule="nonzero"/><path fill="#b6d5f0" d="M 312.253906 163.398438 C 306.453125 172.546875 295.824219 172.511719 290.054688 163.398438 C 296.890625 167.847656 305.417969 167.847656 312.253906 163.398438 " fill-opacity="1" fill-rule="nonzero"/><path fill="#b6d5f0" d="M 323.355469 144.949219 C 317.554688 154.097656 306.921875 154.0625 301.15625 144.949219 C 307.992188 149.394531 316.519531 149.398438 323.355469 144.949219 " fill-opacity="1" fill-rule="nonzero"/></svg>